<svg id="mermaid-1755441459592" width="100%" xmlns="http://www.w3.org/2000/svg" height="1200" style="max-width: 1582px;" viewBox="-50 -10 1582 3248" role="img" aria-labelledby="chart-title-mermaid-1755441459592 chart-desc-mermaid-1755441459592"><title id="chart-title-mermaid-1755441459592"></title><desc id="chart-desc-mermaid-1755441459592"></desc><style>#mermaid-1755441459592 {font-family:"trebuchet ms",verdana,arial,sans-serif;font-size:16px;fill:#ccc;}#mermaid-1755441459592 .error-icon{fill:#a44141;}#mermaid-1755441459592 .error-text{fill:#ddd;stroke:#ddd;}#mermaid-1755441459592 .edge-thickness-normal{stroke-width:2px;}#mermaid-1755441459592 .edge-thickness-thick{stroke-width:3.5px;}#mermaid-1755441459592 .edge-pattern-solid{stroke-dasharray:0;}#mermaid-1755441459592 .edge-pattern-dashed{stroke-dasharray:3;}#mermaid-1755441459592 .edge-pattern-dotted{stroke-dasharray:2;}#mermaid-1755441459592 .marker{fill:lightgrey;stroke:lightgrey;}#mermaid-1755441459592 .marker.cross{stroke:lightgrey;}#mermaid-1755441459592 svg{font-family:"trebuchet ms",verdana,arial,sans-serif;font-size:16px;}#mermaid-1755441459592 .actor{stroke:#81B1DB;fill:#1f2020;}#mermaid-1755441459592 text.actor&gt;tspan{fill:lightgrey;stroke:none;}#mermaid-1755441459592 .actor-line{stroke:lightgrey;}#mermaid-1755441459592 .messageLine0{stroke-width:1.5;stroke-dasharray:none;stroke:lightgrey;}#mermaid-1755441459592 .messageLine1{stroke-width:1.5;stroke-dasharray:2,2;stroke:lightgrey;}#mermaid-1755441459592 #arrowhead path{fill:lightgrey;stroke:lightgrey;}#mermaid-1755441459592 .sequenceNumber{fill:black;}#mermaid-1755441459592 #sequencenumber{fill:lightgrey;}#mermaid-1755441459592 #crosshead path{fill:lightgrey;stroke:lightgrey;}#mermaid-1755441459592 .messageText{fill:lightgrey;stroke:lightgrey;}#mermaid-1755441459592 .labelBox{stroke:#81B1DB;fill:#1f2020;}#mermaid-1755441459592 .labelText,#mermaid-1755441459592 .labelText&gt;tspan{fill:lightgrey;stroke:none;}#mermaid-1755441459592 .loopText,#mermaid-1755441459592 .loopText&gt;tspan{fill:lightgrey;stroke:none;}#mermaid-1755441459592 .loopLine{stroke-width:2px;stroke-dasharray:2,2;stroke:#81B1DB;fill:#81B1DB;}#mermaid-1755441459592 .note{stroke:hsl(180, 0%, 18.3529411765%);fill:hsl(180, 1.5873015873%, 28.3529411765%);}#mermaid-1755441459592 .noteText,#mermaid-1755441459592 .noteText&gt;tspan{fill:rgb(183.8476190475, 181.5523809523, 181.5523809523);stroke:none;}#mermaid-1755441459592 .activation0{fill:hsl(180, 1.5873015873%, 28.3529411765%);stroke:#81B1DB;}#mermaid-1755441459592 .activation1{fill:hsl(180, 1.5873015873%, 28.3529411765%);stroke:#81B1DB;}#mermaid-1755441459592 .activation2{fill:hsl(180, 1.5873015873%, 28.3529411765%);stroke:#81B1DB;}#mermaid-1755441459592 .actorPopupMenu{position:absolute;}#mermaid-1755441459592 .actorPopupMenuPanel{position:absolute;fill:#1f2020;box-shadow:0px 8px 16px 0px rgba(0,0,0,0.2);filter:drop-shadow(3px 5px 2px rgb(0 0 0 / 0.4));}#mermaid-1755441459592 .actor-man line{stroke:#81B1DB;fill:#1f2020;}#mermaid-1755441459592 .actor-man circle,#mermaid-1755441459592 line{stroke:#81B1DB;fill:#1f2020;stroke-width:2px;}#mermaid-1755441459592 :root{--mermaid-font-family:"trebuchet ms",verdana,arial,sans-serif;}</style><g></g><defs><symbol id="computer" width="24" height="24"><path transform="scale(.5)" d="M2 2v13h20v-13h-20zm18 11h-16v-9h16v9zm-10.228 6l.466-1h3.524l.467 1h-4.457zm14.228 3h-24l2-6h2.104l-1.33 4h18.45l-1.297-4h2.073l2 6zm-5-10h-14v-7h14v7z"></path></symbol></defs><defs><symbol id="database" fill-rule="evenodd" clip-rule="evenodd"><path transform="scale(.5)" d="M12.258.001l.256.004.255.005.253.008.251.01.249.012.247.015.246.016.242.019.241.02.239.023.236.024.233.027.231.028.229.031.225.032.223.034.22.036.217.038.214.04.211.041.208.043.205.045.201.046.198.048.194.05.191.051.187.053.183.054.18.056.175.057.172.059.168.06.163.061.16.063.155.064.15.066.074.033.073.033.071.034.07.034.069.035.068.035.067.035.066.035.064.036.064.036.062.036.06.036.06.037.058.037.058.037.055.038.055.038.053.038.052.038.051.039.05.039.048.039.047.039.045.04.044.04.043.04.041.04.04.041.039.041.037.041.036.041.034.041.033.042.032.042.03.042.029.042.027.042.026.043.024.043.023.043.021.043.02.043.018.044.017.043.015.044.013.044.012.044.011.045.009.044.007.045.006.045.004.045.002.045.001.045v17l-.001.045-.002.045-.004.045-.006.045-.007.045-.009.044-.011.045-.012.044-.013.044-.015.044-.017.043-.018.044-.02.043-.021.043-.023.043-.024.043-.026.043-.027.042-.029.042-.03.042-.032.042-.033.042-.034.041-.036.041-.037.041-.039.041-.04.041-.041.04-.043.04-.044.04-.045.04-.047.039-.048.039-.05.039-.051.039-.052.038-.053.038-.055.038-.055.038-.058.037-.058.037-.06.037-.06.036-.062.036-.064.036-.064.036-.066.035-.067.035-.068.035-.069.035-.07.034-.071.034-.073.033-.074.033-.15.066-.155.064-.16.063-.163.061-.168.06-.172.059-.175.057-.18.056-.183.054-.187.053-.191.051-.194.05-.198.048-.201.046-.205.045-.208.043-.211.041-.214.04-.217.038-.22.036-.223.034-.225.032-.229.031-.231.028-.233.027-.236.024-.239.023-.241.02-.242.019-.246.016-.247.015-.249.012-.251.01-.253.008-.255.005-.256.004-.258.001-.258-.001-.256-.004-.255-.005-.253-.008-.251-.01-.249-.012-.247-.015-.245-.016-.243-.019-.241-.02-.238-.023-.236-.024-.234-.027-.231-.028-.228-.031-.226-.032-.223-.034-.22-.036-.217-.038-.214-.04-.211-.041-.208-.043-.204-.045-.201-.046-.198-.048-.195-.05-.19-.051-.187-.053-.184-.054-.179-.056-.176-.057-.172-.059-.167-.06-.164-.061-.159-.063-.155-.064-.151-.066-.074-.033-.072-.033-.072-.034-.07-.034-.069-.035-.068-.035-.067-.035-.066-.035-.064-.036-.063-.036-.062-.036-.061-.036-.06-.037-.058-.037-.057-.037-.056-.038-.055-.038-.053-.038-.052-.038-.051-.039-.049-.039-.049-.039-.046-.039-.046-.04-.044-.04-.043-.04-.041-.04-.04-.041-.039-.041-.037-.041-.036-.041-.034-.041-.033-.042-.032-.042-.03-.042-.029-.042-.027-.042-.026-.043-.024-.043-.023-.043-.021-.043-.02-.043-.018-.044-.017-.043-.015-.044-.013-.044-.012-.044-.011-.045-.009-.044-.007-.045-.006-.045-.004-.045-.002-.045-.001-.045v-17l.001-.045.002-.045.004-.045.006-.045.007-.045.009-.044.011-.045.012-.044.013-.044.015-.044.017-.043.018-.044.02-.043.021-.043.023-.043.024-.043.026-.043.027-.042.029-.042.03-.042.032-.042.033-.042.034-.041.036-.041.037-.041.039-.041.04-.041.041-.04.043-.04.044-.04.046-.04.046-.039.049-.039.049-.039.051-.039.052-.038.053-.038.055-.038.056-.038.057-.037.058-.037.06-.037.061-.036.062-.036.063-.036.064-.036.066-.035.067-.035.068-.035.069-.035.07-.034.072-.034.072-.033.074-.033.151-.066.155-.064.159-.063.164-.061.167-.06.172-.059.176-.057.179-.056.184-.054.187-.053.19-.051.195-.05.198-.048.201-.046.204-.045.208-.043.211-.041.214-.04.217-.038.22-.036.223-.034.226-.032.228-.031.231-.028.234-.027.236-.024.238-.023.241-.02.243-.019.245-.016.247-.015.249-.012.251-.01.253-.008.255-.005.256-.004.258-.001.258.001zm-9.258 20.499v.01l.001.021.003.021.004.022.005.021.006.022.007.022.009.023.01.022.011.023.012.023.013.023.015.023.016.024.017.023.018.024.019.024.021.024.022.025.023.024.024.025.052.049.056.05.061.051.066.051.07.051.075.051.079.052.084.052.088.052.092.052.097.052.102.051.105.052.11.052.114.051.119.051.123.051.127.05.131.05.135.05.139.048.144.049.147.047.152.047.155.047.16.045.163.045.167.043.171.043.176.041.178.041.183.039.187.039.19.037.194.035.197.035.202.033.204.031.209.03.212.029.216.027.219.025.222.024.226.021.23.02.233.018.236.016.24.015.243.012.246.01.249.008.253.005.256.004.259.001.26-.001.257-.004.254-.005.25-.008.247-.011.244-.012.241-.014.237-.016.233-.018.231-.021.226-.021.224-.024.22-.026.216-.027.212-.028.21-.031.205-.031.202-.034.198-.034.194-.036.191-.037.187-.039.183-.04.179-.04.175-.042.172-.043.168-.044.163-.045.16-.046.155-.046.152-.047.148-.048.143-.049.139-.049.136-.05.131-.05.126-.05.123-.051.118-.052.114-.051.11-.052.106-.052.101-.052.096-.052.092-.052.088-.053.083-.051.079-.052.074-.052.07-.051.065-.051.06-.051.056-.05.051-.05.023-.024.023-.025.021-.024.02-.024.019-.024.018-.024.017-.024.015-.023.014-.024.013-.023.012-.023.01-.023.01-.022.008-.022.006-.022.006-.022.004-.022.004-.021.001-.021.001-.021v-4.127l-.077.055-.08.053-.083.054-.085.053-.087.052-.09.052-.093.051-.095.05-.097.05-.1.049-.102.049-.105.048-.106.047-.109.047-.111.046-.114.045-.115.045-.118.044-.12.043-.122.042-.124.042-.126.041-.128.04-.13.04-.132.038-.134.038-.135.037-.138.037-.139.035-.142.035-.143.034-.144.033-.147.032-.148.031-.15.03-.151.03-.153.029-.154.027-.156.027-.158.026-.159.025-.161.024-.162.023-.163.022-.165.021-.166.02-.167.019-.169.018-.169.017-.171.016-.173.015-.173.014-.175.013-.175.012-.177.011-.178.01-.179.008-.179.008-.181.006-.182.005-.182.004-.184.003-.184.002h-.37l-.184-.002-.184-.003-.182-.004-.182-.005-.181-.006-.179-.008-.179-.008-.178-.01-.176-.011-.176-.012-.175-.013-.173-.014-.172-.015-.171-.016-.17-.017-.169-.018-.167-.019-.166-.02-.165-.021-.163-.022-.162-.023-.161-.024-.159-.025-.157-.026-.156-.027-.155-.027-.153-.029-.151-.03-.15-.03-.148-.031-.146-.032-.145-.033-.143-.034-.141-.035-.14-.035-.137-.037-.136-.037-.134-.038-.132-.038-.13-.04-.128-.04-.126-.041-.124-.042-.122-.042-.12-.044-.117-.043-.116-.045-.113-.045-.112-.046-.109-.047-.106-.047-.105-.048-.102-.049-.1-.049-.097-.05-.095-.05-.093-.052-.09-.051-.087-.052-.085-.053-.083-.054-.08-.054-.077-.054v4.127zm0-5.654v.011l.001.021.003.021.004.021.005.022.006.022.007.022.009.022.01.022.011.023.012.023.013.023.015.024.016.023.017.024.018.024.019.024.021.024.022.024.023.025.024.024.052.05.056.05.061.05.066.051.07.051.075.052.079.051.084.052.088.052.092.052.097.052.102.052.105.052.11.051.114.051.119.052.123.05.127.051.131.05.135.049.139.049.144.048.147.048.152.047.155.046.16.045.163.045.167.044.171.042.176.042.178.04.183.04.187.038.19.037.194.036.197.034.202.033.204.032.209.03.212.028.216.027.219.025.222.024.226.022.23.02.233.018.236.016.24.014.243.012.246.01.249.008.253.006.256.003.259.001.26-.001.257-.003.254-.006.25-.008.247-.01.244-.012.241-.015.237-.016.233-.018.231-.02.226-.022.224-.024.22-.025.216-.027.212-.029.21-.03.205-.032.202-.033.198-.035.194-.036.191-.037.187-.039.183-.039.179-.041.175-.042.172-.043.168-.044.163-.045.16-.045.155-.047.152-.047.148-.048.143-.048.139-.05.136-.049.131-.05.126-.051.123-.051.118-.051.114-.052.11-.052.106-.052.101-.052.096-.052.092-.052.088-.052.083-.052.079-.052.074-.051.07-.052.065-.051.06-.05.056-.051.051-.049.023-.025.023-.024.021-.025.02-.024.019-.024.018-.024.017-.024.015-.023.014-.023.013-.024.012-.022.01-.023.01-.023.008-.022.006-.022.006-.022.004-.021.004-.022.001-.021.001-.021v-4.139l-.077.054-.08.054-.083.054-.085.052-.087.053-.09.051-.093.051-.095.051-.097.05-.1.049-.102.049-.105.048-.106.047-.109.047-.111.046-.114.045-.115.044-.118.044-.12.044-.122.042-.124.042-.126.041-.128.04-.13.039-.132.039-.134.038-.135.037-.138.036-.139.036-.142.035-.143.033-.144.033-.147.033-.148.031-.15.03-.151.03-.153.028-.154.028-.156.027-.158.026-.159.025-.161.024-.162.023-.163.022-.165.021-.166.02-.167.019-.169.018-.169.017-.171.016-.173.015-.173.014-.175.013-.175.012-.177.011-.178.009-.179.009-.179.007-.181.007-.182.005-.182.004-.184.003-.184.002h-.37l-.184-.002-.184-.003-.182-.004-.182-.005-.181-.007-.179-.007-.179-.009-.178-.009-.176-.011-.176-.012-.175-.013-.173-.014-.172-.015-.171-.016-.17-.017-.169-.018-.167-.019-.166-.02-.165-.021-.163-.022-.162-.023-.161-.024-.159-.025-.157-.026-.156-.027-.155-.028-.153-.028-.151-.03-.15-.03-.148-.031-.146-.033-.145-.033-.143-.033-.141-.035-.14-.036-.137-.036-.136-.037-.134-.038-.132-.039-.13-.039-.128-.04-.126-.041-.124-.042-.122-.043-.12-.043-.117-.044-.116-.044-.113-.046-.112-.046-.109-.046-.106-.047-.105-.048-.102-.049-.1-.049-.097-.05-.095-.051-.093-.051-.09-.051-.087-.053-.085-.052-.083-.054-.08-.054-.077-.054v4.139zm0-5.666v.011l.001.02.003.022.004.021.005.022.006.021.007.022.009.023.01.022.011.023.012.023.013.023.015.023.016.024.017.024.018.023.019.024.021.025.022.024.023.024.024.025.052.05.056.05.061.05.066.051.07.051.075.052.079.051.084.052.088.052.092.052.097.052.102.052.105.051.11.052.114.051.119.051.123.051.127.05.131.05.135.05.139.049.144.048.147.048.152.047.155.046.16.045.163.045.167.043.171.043.176.042.178.04.183.04.187.038.19.037.194.036.197.034.202.033.204.032.209.03.212.028.216.027.219.025.222.024.226.021.23.02.233.018.236.017.24.014.243.012.246.01.249.008.253.006.256.003.259.001.26-.001.257-.003.254-.006.25-.008.247-.01.244-.013.241-.014.237-.016.233-.018.231-.02.226-.022.224-.024.22-.025.216-.027.212-.029.21-.03.205-.032.202-.033.198-.035.194-.036.191-.037.187-.039.183-.039.179-.041.175-.042.172-.043.168-.044.163-.045.16-.045.155-.047.152-.047.148-.048.143-.049.139-.049.136-.049.131-.051.126-.05.123-.051.118-.052.114-.051.11-.052.106-.052.101-.052.096-.052.092-.052.088-.052.083-.052.079-.052.074-.052.07-.051.065-.051.06-.051.056-.05.051-.049.023-.025.023-.025.021-.024.02-.024.019-.024.018-.024.017-.024.015-.023.014-.024.013-.023.012-.023.01-.022.01-.023.008-.022.006-.022.006-.022.004-.022.004-.021.001-.021.001-.021v-4.153l-.077.054-.08.054-.083.053-.085.053-.087.053-.09.051-.093.051-.095.051-.097.05-.1.049-.102.048-.105.048-.106.048-.109.046-.111.046-.114.046-.115.044-.118.044-.12.043-.122.043-.124.042-.126.041-.128.04-.13.039-.132.039-.134.038-.135.037-.138.036-.139.036-.142.034-.143.034-.144.033-.147.032-.148.032-.15.03-.151.03-.153.028-.154.028-.156.027-.158.026-.159.024-.161.024-.162.023-.163.023-.165.021-.166.02-.167.019-.169.018-.169.017-.171.016-.173.015-.173.014-.175.013-.175.012-.177.01-.178.01-.179.009-.179.007-.181.006-.182.006-.182.004-.184.003-.184.001-.185.001-.185-.001-.184-.001-.184-.003-.182-.004-.182-.006-.181-.006-.179-.007-.179-.009-.178-.01-.176-.01-.176-.012-.175-.013-.173-.014-.172-.015-.171-.016-.17-.017-.169-.018-.167-.019-.166-.02-.165-.021-.163-.023-.162-.023-.161-.024-.159-.024-.157-.026-.156-.027-.155-.028-.153-.028-.151-.03-.15-.03-.148-.032-.146-.032-.145-.033-.143-.034-.141-.034-.14-.036-.137-.036-.136-.037-.134-.038-.132-.039-.13-.039-.128-.041-.126-.041-.124-.041-.122-.043-.12-.043-.117-.044-.116-.044-.113-.046-.112-.046-.109-.046-.106-.048-.105-.048-.102-.048-.1-.05-.097-.049-.095-.051-.093-.051-.09-.052-.087-.052-.085-.053-.083-.053-.08-.054-.077-.054v4.153zm8.74-8.179l-.257.004-.254.005-.25.008-.247.011-.244.012-.241.014-.237.016-.233.018-.231.021-.226.022-.224.023-.22.026-.216.027-.212.028-.21.031-.205.032-.202.033-.198.034-.194.036-.191.038-.187.038-.183.04-.179.041-.175.042-.172.043-.168.043-.163.045-.16.046-.155.046-.152.048-.148.048-.143.048-.139.049-.136.05-.131.05-.126.051-.123.051-.118.051-.114.052-.11.052-.106.052-.101.052-.096.052-.092.052-.088.052-.083.052-.079.052-.074.051-.07.052-.065.051-.06.05-.056.05-.051.05-.023.025-.023.024-.021.024-.02.025-.019.024-.018.024-.017.023-.015.024-.014.023-.013.023-.012.023-.01.023-.01.022-.008.022-.006.023-.006.021-.004.022-.004.021-.001.021-.001.021.001.021.001.021.004.021.004.022.006.021.006.023.008.022.01.022.01.023.012.023.013.023.014.023.015.024.017.023.018.024.019.024.02.025.021.024.023.024.023.025.051.05.056.05.06.05.065.051.07.052.074.051.079.052.083.052.088.052.092.052.096.052.101.052.106.052.11.052.114.052.118.051.123.051.126.051.131.05.136.05.139.049.143.048.148.048.152.048.155.046.16.046.163.045.168.043.172.043.175.042.179.041.183.04.187.038.191.038.194.036.198.034.202.033.205.032.21.031.212.028.216.027.22.026.224.023.226.022.231.021.233.018.237.016.241.014.244.012.247.011.25.008.254.005.257.004.26.001.26-.001.257-.004.254-.005.25-.008.247-.011.244-.012.241-.014.237-.016.233-.018.231-.021.226-.022.224-.023.22-.026.216-.027.212-.028.21-.031.205-.032.202-.033.198-.034.194-.036.191-.038.187-.038.183-.04.179-.041.175-.042.172-.043.168-.043.163-.045.16-.046.155-.046.152-.048.148-.048.143-.048.139-.049.136-.05.131-.05.126-.051.123-.051.118-.051.114-.052.11-.052.106-.052.101-.052.096-.052.092-.052.088-.052.083-.052.079-.052.074-.051.07-.052.065-.051.06-.05.056-.05.051-.05.023-.025.023-.024.021-.024.02-.025.019-.024.018-.024.017-.023.015-.024.014-.023.013-.023.012-.023.01-.023.01-.022.008-.022.006-.023.006-.021.004-.022.004-.021.001-.021.001-.021-.001-.021-.001-.021-.004-.021-.004-.022-.006-.021-.006-.023-.008-.022-.01-.022-.01-.023-.012-.023-.013-.023-.014-.023-.015-.024-.017-.023-.018-.024-.019-.024-.02-.025-.021-.024-.023-.024-.023-.025-.051-.05-.056-.05-.06-.05-.065-.051-.07-.052-.074-.051-.079-.052-.083-.052-.088-.052-.092-.052-.096-.052-.101-.052-.106-.052-.11-.052-.114-.052-.118-.051-.123-.051-.126-.051-.131-.05-.136-.05-.139-.049-.143-.048-.148-.048-.152-.048-.155-.046-.16-.046-.163-.045-.168-.043-.172-.043-.175-.042-.179-.041-.183-.04-.187-.038-.191-.038-.194-.036-.198-.034-.202-.033-.205-.032-.21-.031-.212-.028-.216-.027-.22-.026-.224-.023-.226-.022-.231-.021-.233-.018-.237-.016-.241-.014-.244-.012-.247-.011-.25-.008-.254-.005-.257-.004-.26-.001-.26.001z"></path></symbol></defs><defs><symbol id="clock" width="24" height="24"><path transform="scale(.5)" d="M12 2c5.514 0 10 4.486 10 10s-4.486 10-10 10-10-4.486-10-10 4.486-10 10-10zm0-2c-6.627 0-12 5.373-12 12s5.373 12 12 12 12-5.373 12-12-5.373-12-12-12zm5.848 12.459c.202.038.202.333.001.372-1.907.361-6.045 1.111-6.547 1.111-.719 0-1.301-.582-1.301-1.301 0-.512.77-5.447 1.125-7.445.034-.192.312-.181.343.014l.985 6.238 5.394 1.011z"></path></symbol></defs><g><line id="actor0" x1="75" y1="5" x2="75" y2="3182" class="200" stroke-width="0.5px" stroke="#999"></line><g id="root-0"><rect x="0" y="0" fill="#eaeaea" stroke="#666" width="150" height="65" rx="3" ry="3" class="actor"></rect><text x="75" y="32.5" dominant-baseline="central" alignment-baseline="central" class="actor" style="text-anchor: middle; font-size: 14px; font-weight: 400; font-family: &quot;Open Sans&quot;, sans-serif;"><tspan x="75" dy="0">用户</tspan></text></g></g><g><line id="actor1" x1="446" y1="5" x2="446" y2="3182" class="200" stroke-width="0.5px" stroke="#999"></line><g id="root-1"><rect x="371" y="0" fill="#eaeaea" stroke="#666" width="150" height="65" rx="3" ry="3" class="actor"></rect><text x="446" y="32.5" dominant-baseline="central" alignment-baseline="central" class="actor" style="text-anchor: middle; font-size: 14px; font-weight: 400; font-family: &quot;Open Sans&quot;, sans-serif;"><tspan x="446" dy="0">GitHub</tspan></text></g></g><g><line id="actor2" x1="777" y1="5" x2="777" y2="3182" class="200" stroke-width="0.5px" stroke="#999"></line><g id="root-2"><rect x="696" y="0" fill="#eaeaea" stroke="#666" width="162" height="65" rx="3" ry="3" class="actor"></rect><text x="777" y="32.5" dominant-baseline="central" alignment-baseline="central" class="actor" style="text-anchor: middle; font-size: 14px; font-weight: 400; font-family: &quot;Open Sans&quot;, sans-serif;"><tspan x="777" dy="0">Ubuntu Runner (build)</tspan></text></g></g><g><line id="actor3" x1="995" y1="5" x2="995" y2="3182" class="200" stroke-width="0.5px" stroke="#999"></line><g id="root-3"><rect x="908" y="0" fill="#eaeaea" stroke="#666" width="174" height="65" rx="3" ry="3" class="actor"></rect><text x="995" y="32.5" dominant-baseline="central" alignment-baseline="central" class="actor" style="text-anchor: middle; font-size: 14px; font-weight: 400; font-family: &quot;Open Sans&quot;, sans-serif;"><tspan x="995" dy="0">Ubuntu Runner (deploy)</tspan></text></g></g><g><line id="actor4" x1="1207" y1="5" x2="1207" y2="3182" class="200" stroke-width="0.5px" stroke="#999"></line><g id="root-4"><rect x="1132" y="0" fill="#eaeaea" stroke="#666" width="150" height="65" rx="3" ry="3" class="actor"></rect><text x="1207" y="32.5" dominant-baseline="central" alignment-baseline="central" class="actor" style="text-anchor: middle; font-size: 14px; font-weight: 400; font-family: &quot;Open Sans&quot;, sans-serif;"><tspan x="1207" dy="0">iFlow CLI Action</tspan></text></g></g><g><line id="actor5" x1="1407" y1="5" x2="1407" y2="3182" class="200" stroke-width="0.5px" stroke="#999"></line><g id="root-5"><rect x="1332" y="0" fill="#eaeaea" stroke="#666" width="150" height="65" rx="3" ry="3" class="actor"></rect><text x="1407" y="32.5" dominant-baseline="central" alignment-baseline="central" class="actor" style="text-anchor: middle; font-size: 14px; font-weight: 400; font-family: &quot;Open Sans&quot;, sans-serif;"><tspan x="1407" dy="0">GitHub Pages</tspan></text></g></g><defs><marker id="arrowhead" refX="9" refY="5" markerUnits="userSpaceOnUse" markerWidth="12" markerHeight="12" orient="auto"><path d="M 0 0 L 10 5 L 0 10 z"></path></marker></defs><defs><marker id="crosshead" markerWidth="15" markerHeight="8" orient="auto" refX="16" refY="4"><path fill="black" stroke="#000000" stroke-width="1px" d="M 9,2 V 6 L16,4 Z" style="stroke-dasharray: 0, 0;"></path><path fill="none" stroke="#000000" stroke-width="1px" d="M 0,1 L 6,7 M 6,1 L 0,7" style="stroke-dasharray: 0, 0;"></path></marker></defs><defs><marker id="filled-head" refX="18" refY="7" markerWidth="20" markerHeight="28" orient="auto"><path d="M 18,7 L9,13 L14,7 L9,1 Z"></path></marker></defs><defs><marker id="sequencenumber" refX="15" refY="15" markerWidth="60" markerHeight="40" orient="auto"><circle cx="15" cy="15" r="6"></circle></marker></defs><g><rect x="371" y="75" fill="#EDF2AE" stroke="#666" width="150" height="36" rx="0" ry="0" class="note"></rect><text x="446" y="80" text-anchor="middle" dominant-baseline="middle" alignment-baseline="middle" class="noteText" dy="1em" style="font-family: &quot;trebuchet ms&quot;, verdana, arial, sans-serif; font-size: 14px; font-weight: 400;"><tspan x="446">触发条件检查</tspan></text></g><text x="446" y="174" text-anchor="middle" dominant-baseline="middle" alignment-baseline="middle" class="messageText" dy="1em" style="font-family: &quot;trebuchet ms&quot;, verdana, arial, sans-serif; font-size: 16px; font-weight: 400;">检查 cron 表达式</text><path d="M 446,215 C 506,205 506,245 446,235" class="messageLine0" stroke-width="2" stroke="none" marker-end="url(#arrowhead)" style="fill: none;"></path><text x="261" y="305" text-anchor="middle" dominant-baseline="middle" alignment-baseline="middle" class="messageText" dy="1em" style="font-family: &quot;trebuchet ms&quot;, verdana, arial, sans-serif; font-size: 16px; font-weight: 400;">workflow_dispatch</text><line x1="75" y1="346" x2="446" y2="346" class="messageLine0" stroke-width="2" stroke="none" marker-end="url(#arrowhead)" style="fill: none;"></line><text x="261" y="409" text-anchor="middle" dominant-baseline="middle" alignment-baseline="middle" class="messageText" dy="1em" style="font-family: &quot;trebuchet ms&quot;, verdana, arial, sans-serif; font-size: 16px; font-weight: 400;">推送代码 (README.md/README_zh.md)</text><line x1="75" y1="450" x2="446" y2="450" class="messageLine0" stroke-width="2" stroke="none" marker-end="url(#arrowhead)" style="fill: none;"></line><text x="446" y="465" text-anchor="middle" dominant-baseline="middle" alignment-baseline="middle" class="messageText" dy="1em" style="font-family: &quot;trebuchet ms&quot;, verdana, arial, sans-serif; font-size: 16px; font-weight: 400;">检查文件路径匹配</text><path d="M 446,498 C 506,488 506,528 446,518" class="messageLine0" stroke-width="2" stroke="none" marker-end="url(#arrowhead)" style="fill: none;"></path><g><line x1="65" y1="121" x2="531" y2="121" class="loopLine"></line><line x1="531" y1="121" x2="531" y2="568" class="loopLine"></line><line x1="65" y1="568" x2="531" y2="568" class="loopLine"></line><line x1="65" y1="121" x2="65" y2="568" class="loopLine"></line><line x1="65" y1="260" x2="531" y2="260" class="loopLine" style="stroke-dasharray: 3, 3;"></line><line x1="65" y1="361" x2="531" y2="361" class="loopLine" style="stroke-dasharray: 3, 3;"></line><polygon points="65,121 115,121 115,134 106.6,141 65,141" class="labelBox"></polygon><text x="90" y="134" text-anchor="middle" dominant-baseline="middle" alignment-baseline="middle" class="labelText" style="font-family: &quot;trebuchet ms&quot;, verdana, arial, sans-serif; font-size: 16px; font-weight: 400;">alt</text><text x="323" y="139" text-anchor="middle" class="loopText" style="font-family: &quot;trebuchet ms&quot;, verdana, arial, sans-serif; font-size: 16px; font-weight: 400;"><tspan x="323">[定时触发 (每日 02:00 UTC)]</tspan></text><text x="298" y="278" text-anchor="middle" class="loopText" style="font-family: &quot;trebuchet ms&quot;, verdana, arial, sans-serif; font-size: 16px; font-weight: 400;">[手动触发]</text><text x="298" y="379" text-anchor="middle" class="loopText" style="font-family: &quot;trebuchet ms&quot;, verdana, arial, sans-serif; font-size: 16px; font-weight: 400;">[推送到 main 分支]</text></g><g><rect x="371" y="578" fill="#EDF2AE" stroke="#666" width="150" height="36" rx="0" ry="0" class="note"></rect><text x="446" y="583" text-anchor="middle" dominant-baseline="middle" alignment-baseline="middle" class="noteText" dy="1em" style="font-family: &quot;trebuchet ms&quot;, verdana, arial, sans-serif; font-size: 14px; font-weight: 400;"><tspan x="446">权限和并发控制</tspan></text></g><text x="446" y="629" text-anchor="middle" dominant-baseline="middle" alignment-baseline="middle" class="messageText" dy="1em" style="font-family: &quot;trebuchet ms&quot;, verdana, arial, sans-serif; font-size: 16px; font-weight: 400;">设置 GITHUB_TOKEN 权限</text><text x="446" y="648" text-anchor="middle" dominant-baseline="middle" alignment-baseline="middle" class="messageText" dy="1em" style="font-family: &quot;trebuchet ms&quot;, verdana, arial, sans-serif; font-size: 16px; font-weight: 400;">(contents: read, pages: write)</text><path d="M 446,693 C 506,683 506,723 446,713" class="messageLine0" stroke-width="2" stroke="none" marker-end="url(#arrowhead)" style="fill: none;"></path><text x="446" y="738" text-anchor="middle" dominant-baseline="middle" alignment-baseline="middle" class="messageText" dy="1em" style="font-family: &quot;trebuchet ms&quot;, verdana, arial, sans-serif; font-size: 16px; font-weight: 400;">检查并发组 "pages"</text><text x="446" y="757" text-anchor="middle" dominant-baseline="middle" alignment-baseline="middle" class="messageText" dy="1em" style="font-family: &quot;trebuchet ms&quot;, verdana, arial, sans-serif; font-size: 16px; font-weight: 400;">(取消进行中的运行)</text><path d="M 446,802 C 506,792 506,832 446,822" class="messageLine0" stroke-width="2" stroke="none" marker-end="url(#arrowhead)" style="fill: none;"></path><g><rect x="421" y="842" fill="#EDF2AE" stroke="#666" width="381" height="36" rx="0" ry="0" class="note"></rect><text x="612" y="847" text-anchor="middle" dominant-baseline="middle" alignment-baseline="middle" class="noteText" dy="1em" style="font-family: &quot;trebuchet ms&quot;, verdana, arial, sans-serif; font-size: 14px; font-weight: 400;"><tspan x="612">Build Job 开始</tspan></text></g><text x="612" y="893" text-anchor="middle" dominant-baseline="middle" alignment-baseline="middle" class="messageText" dy="1em" style="font-family: &quot;trebuchet ms&quot;, verdana, arial, sans-serif; font-size: 16px; font-weight: 400;">分配 ubuntu-latest 运行器</text><line x1="446" y1="934" x2="777" y2="934" class="messageLine0" stroke-width="2" stroke="none" marker-end="url(#arrowhead)" style="fill: none;"></line><text x="777" y="949" text-anchor="middle" dominant-baseline="middle" alignment-baseline="middle" class="messageText" dy="1em" style="font-family: &quot;trebuchet ms&quot;, verdana, arial, sans-serif; font-size: 16px; font-weight: 400;">设置环境变量</text><text x="777" y="968" text-anchor="middle" dominant-baseline="middle" alignment-baseline="middle" class="messageText" dy="1em" style="font-family: &quot;trebuchet ms&quot;, verdana, arial, sans-serif; font-size: 16px; font-weight: 400;">GITHUB_PAGES=true</text><path d="M 777,1013 C 837,1003 837,1043 777,1033" class="messageLine0" stroke-width="2" stroke="none" marker-end="url(#arrowhead)" style="fill: none;"></path><g><rect x="696" y="1053" fill="#EDF2AE" stroke="#666" width="162" height="36" rx="0" ry="0" class="note"></rect><text x="777" y="1058" text-anchor="middle" dominant-baseline="middle" alignment-baseline="middle" class="noteText" dy="1em" style="font-family: &quot;trebuchet ms&quot;, verdana, arial, sans-serif; font-size: 14px; font-weight: 400;"><tspan x="777">Step 1: 检出代码</tspan></text></g><text x="612" y="1104" text-anchor="middle" dominant-baseline="middle" alignment-baseline="middle" class="messageText" dy="1em" style="font-family: &quot;trebuchet ms&quot;, verdana, arial, sans-serif; font-size: 16px; font-weight: 400;">actions/checkout@v4</text><line x1="777" y1="1145" x2="446" y2="1145" class="messageLine0" stroke-width="2" stroke="none" marker-end="url(#arrowhead)" style="fill: none;"></line><text x="612" y="1160" text-anchor="middle" dominant-baseline="middle" alignment-baseline="middle" class="messageText" dy="1em" style="font-family: &quot;trebuchet ms&quot;, verdana, arial, sans-serif; font-size: 16px; font-weight: 400;">返回仓库代码</text><line x1="446" y1="1193" x2="777" y2="1193" class="messageLine1" stroke-width="2" stroke="none" marker-end="url(#arrowhead)" style="stroke-dasharray: 3, 3; fill: none;"></line><g><rect x="696" y="1203" fill="#EDF2AE" stroke="#666" width="162" height="36" rx="0" ry="0" class="note"></rect><text x="777" y="1208" text-anchor="middle" dominant-baseline="middle" alignment-baseline="middle" class="noteText" dy="1em" style="font-family: &quot;trebuchet ms&quot;, verdana, arial, sans-serif; font-size: 14px; font-weight: 400;"><tspan x="777">Step 2: 配置 Pages</tspan></text></g><text x="777" y="1254" text-anchor="middle" dominant-baseline="middle" alignment-baseline="middle" class="messageText" dy="1em" style="font-family: &quot;trebuchet ms&quot;, verdana, arial, sans-serif; font-size: 16px; font-weight: 400;">actions/configure-pages@v4</text><path d="M 777,1295 C 837,1285 837,1325 777,1315" class="messageLine0" stroke-width="2" stroke="none" marker-end="url(#arrowhead)" style="fill: none;"></path><text x="777" y="1340" text-anchor="middle" dominant-baseline="middle" alignment-baseline="middle" class="messageText" dy="1em" style="font-family: &quot;trebuchet ms&quot;, verdana, arial, sans-serif; font-size: 16px; font-weight: 400;">配置 GitHub Pages 设置</text><path d="M 777,1381 C 837,1371 837,1411 777,1401" class="messageLine0" stroke-width="2" stroke="none" marker-end="url(#arrowhead)" style="fill: none;"></path><g><rect x="696" y="1421" fill="#EDF2AE" stroke="#666" width="162" height="36" rx="0" ry="0" class="note"></rect><text x="777" y="1426" text-anchor="middle" dominant-baseline="middle" alignment-baseline="middle" class="noteText" dy="1em" style="font-family: &quot;trebuchet ms&quot;, verdana, arial, sans-serif; font-size: 14px; font-weight: 400;"><tspan x="777">Step 3: 创建目录</tspan></text></g><text x="777" y="1472" text-anchor="middle" dominant-baseline="middle" alignment-baseline="middle" class="messageText" dy="1em" style="font-family: &quot;trebuchet ms&quot;, verdana, arial, sans-serif; font-size: 16px; font-weight: 400;">mkdir -p _site</text><path d="M 777,1513 C 837,1503 837,1543 777,1533" class="messageLine0" stroke-width="2" stroke="none" marker-end="url(#arrowhead)" style="fill: none;"></path><g><rect x="696" y="1553" fill="#EDF2AE" stroke="#666" width="162" height="36" rx="0" ry="0" class="note"></rect><text x="777" y="1558" text-anchor="middle" dominant-baseline="middle" alignment-baseline="middle" class="noteText" dy="1em" style="font-family: &quot;trebuchet ms&quot;, verdana, arial, sans-serif; font-size: 14px; font-weight: 400;"><tspan x="777">Step 4: 生成首页</tspan></text></g><text x="992" y="1604" text-anchor="middle" dominant-baseline="middle" alignment-baseline="middle" class="messageText" dy="1em" style="font-family: &quot;trebuchet ms&quot;, verdana, arial, sans-serif; font-size: 16px; font-weight: 400;">vibe-ideas/iflow-cli-action@main</text><line x1="777" y1="1645" x2="1207" y2="1645" class="messageLine0" stroke-width="2" stroke="none" marker-end="url(#arrowhead)" style="fill: none;"></line><g><rect x="1132" y="1655" fill="#EDF2AE" stroke="#666" width="150" height="36" rx="0" ry="0" class="note"></rect><text x="1207" y="1660" text-anchor="middle" dominant-baseline="middle" alignment-baseline="middle" class="noteText" dy="1em" style="font-family: &quot;trebuchet ms&quot;, verdana, arial, sans-serif; font-size: 14px; font-weight: 400;"><tspan x="1207">处理提示词</tspan></text></g><text x="1207" y="1706" text-anchor="middle" dominant-baseline="middle" alignment-baseline="middle" class="messageText" dy="1em" style="font-family: &quot;trebuchet ms&quot;, verdana, arial, sans-serif; font-size: 16px; font-weight: 400;">读取 README.md</text><path d="M 1207,1747 C 1267,1737 1267,1777 1207,1767" class="messageLine0" stroke-width="2" stroke="none" marker-end="url(#arrowhead)" style="fill: none;"></path><text x="1207" y="1792" text-anchor="middle" dominant-baseline="middle" alignment-baseline="middle" class="messageText" dy="1em" style="font-family: &quot;trebuchet ms&quot;, verdana, arial, sans-serif; font-size: 16px; font-weight: 400;">使用 Qwen3-Coder 模型</text><path d="M 1207,1833 C 1267,1823 1267,1863 1207,1853" class="messageLine0" stroke-width="2" stroke="none" marker-end="url(#arrowhead)" style="fill: none;"></path><text x="1207" y="1878" text-anchor="middle" dominant-baseline="middle" alignment-baseline="middle" class="messageText" dy="1em" style="font-family: &quot;trebuchet ms&quot;, verdana, arial, sans-serif; font-size: 16px; font-weight: 400;">生成 Reveal.js 幻灯片</text><path d="M 1207,1919 C 1267,1909 1267,1949 1207,1939" class="messageLine0" stroke-width="2" stroke="none" marker-end="url(#arrowhead)" style="fill: none;"></path><text x="992" y="1964" text-anchor="middle" dominant-baseline="middle" alignment-baseline="middle" class="messageText" dy="1em" style="font-family: &quot;trebuchet ms&quot;, verdana, arial, sans-serif; font-size: 16px; font-weight: 400;">生成 _site/index.html</text><line x1="1207" y1="1997" x2="777" y2="1997" class="messageLine1" stroke-width="2" stroke="none" marker-end="url(#arrowhead)" style="stroke-dasharray: 3, 3; fill: none;"></line><g><rect x="696" y="2007" fill="#EDF2AE" stroke="#666" width="162" height="36" rx="0" ry="0" class="note"></rect><text x="777" y="2012" text-anchor="middle" dominant-baseline="middle" alignment-baseline="middle" class="noteText" dy="1em" style="font-family: &quot;trebuchet ms&quot;, verdana, arial, sans-serif; font-size: 14px; font-weight: 400;"><tspan x="777">Step 5: 验证生成结果</tspan></text></g><text x="777" y="2058" text-anchor="middle" dominant-baseline="middle" alignment-baseline="middle" class="messageText" dy="1em" style="font-family: &quot;trebuchet ms&quot;, verdana, arial, sans-serif; font-size: 16px; font-weight: 400;">检查 _site/index.html 是否存在</text><path d="M 777,2091 C 837,2081 837,2121 777,2111" class="messageLine0" stroke-width="2" stroke="none" marker-end="url(#arrowhead)" style="fill: none;"></path><text x="777" y="2136" text-anchor="middle" dominant-baseline="middle" alignment-baseline="middle" class="messageText" dy="1em" style="font-family: &quot;trebuchet ms&quot;, verdana, arial, sans-serif; font-size: 16px; font-weight: 400;">验证 reveal.js 内容</text><path d="M 777,2169 C 837,2159 837,2199 777,2189" class="messageLine0" stroke-width="2" stroke="none" marker-end="url(#arrowhead)" style="fill: none;"></path><text x="777" y="2214" text-anchor="middle" dominant-baseline="middle" alignment-baseline="middle" class="messageText" dy="1em" style="font-family: &quot;trebuchet ms&quot;, verdana, arial, sans-serif; font-size: 16px; font-weight: 400;">列出 _site/ 目录内容</text><path d="M 777,2247 C 837,2237 837,2277 777,2267" class="messageLine0" stroke-width="2" stroke="none" marker-end="url(#arrowhead)" style="fill: none;"></path><g><rect x="696" y="2287" fill="#EDF2AE" stroke="#666" width="162" height="36" rx="0" ry="0" class="note"></rect><text x="777" y="2292" text-anchor="middle" dominant-baseline="middle" alignment-baseline="middle" class="noteText" dy="1em" style="font-family: &quot;trebuchet ms&quot;, verdana, arial, sans-serif; font-size: 14px; font-weight: 400;"><tspan x="777">Step 6: 上传构建产物</tspan></text></g><text x="612" y="2338" text-anchor="middle" dominant-baseline="middle" alignment-baseline="middle" class="messageText" dy="1em" style="font-family: &quot;trebuchet ms&quot;, verdana, arial, sans-serif; font-size: 16px; font-weight: 400;">actions/upload-pages-artifact@v3</text><line x1="777" y1="2379" x2="446" y2="2379" class="messageLine0" stroke-width="2" stroke="none" marker-end="url(#arrowhead)" style="fill: none;"></line><text x="612" y="2394" text-anchor="middle" dominant-baseline="middle" alignment-baseline="middle" class="messageText" dy="1em" style="font-family: &quot;trebuchet ms&quot;, verdana, arial, sans-serif; font-size: 16px; font-weight: 400;">上传 _site/ 目录</text><line x1="777" y1="2427" x2="446" y2="2427" class="messageLine0" stroke-width="2" stroke="none" marker-end="url(#arrowhead)" style="fill: none;"></line><text x="612" y="2442" text-anchor="middle" dominant-baseline="middle" alignment-baseline="middle" class="messageText" dy="1em" style="font-family: &quot;trebuchet ms&quot;, verdana, arial, sans-serif; font-size: 16px; font-weight: 400;">确认上传成功</text><line x1="446" y1="2475" x2="777" y2="2475" class="messageLine1" stroke-width="2" stroke="none" marker-end="url(#arrowhead)" style="stroke-dasharray: 3, 3; fill: none;"></line><g><rect x="371" y="2485" fill="#EDF2AE" stroke="#666" width="150" height="36" rx="0" ry="0" class="note"></rect><text x="446" y="2490" text-anchor="middle" dominant-baseline="middle" alignment-baseline="middle" class="noteText" dy="1em" style="font-family: &quot;trebuchet ms&quot;, verdana, arial, sans-serif; font-size: 14px; font-weight: 400;"><tspan x="446">Build Job 完成</tspan></text></g><g><rect x="421" y="2531" fill="#EDF2AE" stroke="#666" width="599" height="36" rx="0" ry="0" class="note"></rect><text x="721" y="2536" text-anchor="middle" dominant-baseline="middle" alignment-baseline="middle" class="noteText" dy="1em" style="font-family: &quot;trebuchet ms&quot;, verdana, arial, sans-serif; font-size: 14px; font-weight: 400;"><tspan x="721">Deploy Job 开始 (依赖 build)</tspan></text></g><text x="721" y="2582" text-anchor="middle" dominant-baseline="middle" alignment-baseline="middle" class="messageText" dy="1em" style="font-family: &quot;trebuchet ms&quot;, verdana, arial, sans-serif; font-size: 16px; font-weight: 400;">分配 ubuntu-latest 运行器</text><line x1="446" y1="2623" x2="995" y2="2623" class="messageLine0" stroke-width="2" stroke="none" marker-end="url(#arrowhead)" style="fill: none;"></line><text x="995" y="2638" text-anchor="middle" dominant-baseline="middle" alignment-baseline="middle" class="messageText" dy="1em" style="font-family: &quot;trebuchet ms&quot;, verdana, arial, sans-serif; font-size: 16px; font-weight: 400;">设置 github-pages 环境</text><path d="M 995,2679 C 1055,2669 1055,2709 995,2699" class="messageLine0" stroke-width="2" stroke="none" marker-end="url(#arrowhead)" style="fill: none;"></path><g><rect x="892.5" y="2719" fill="#EDF2AE" stroke="#666" width="205" height="36" rx="0" ry="0" class="note"></rect><text x="995" y="2724" text-anchor="middle" dominant-baseline="middle" alignment-baseline="middle" class="noteText" dy="1em" style="font-family: &quot;trebuchet ms&quot;, verdana, arial, sans-serif; font-size: 14px; font-weight: 400;"><tspan x="995">Step 1: 部署到 GitHub Pages</tspan></text></g><text x="721" y="2770" text-anchor="middle" dominant-baseline="middle" alignment-baseline="middle" class="messageText" dy="1em" style="font-family: &quot;trebuchet ms&quot;, verdana, arial, sans-serif; font-size: 16px; font-weight: 400;">actions/deploy-pages@v4</text><line x1="995" y1="2811" x2="446" y2="2811" class="messageLine0" stroke-width="2" stroke="none" marker-end="url(#arrowhead)" style="fill: none;"></line><text x="927" y="2826" text-anchor="middle" dominant-baseline="middle" alignment-baseline="middle" class="messageText" dy="1em" style="font-family: &quot;trebuchet ms&quot;, verdana, arial, sans-serif; font-size: 16px; font-weight: 400;">部署页面内容</text><line x1="446" y1="2859" x2="1407" y2="2859" class="messageLine0" stroke-width="2" stroke="none" marker-end="url(#arrowhead)" style="fill: none;"></line><text x="927" y="2874" text-anchor="middle" dominant-baseline="middle" alignment-baseline="middle" class="messageText" dy="1em" style="font-family: &quot;trebuchet ms&quot;, verdana, arial, sans-serif; font-size: 16px; font-weight: 400;">返回部署 URL</text><line x1="1407" y1="2915" x2="446" y2="2915" class="messageLine1" stroke-width="2" stroke="none" marker-end="url(#arrowhead)" style="stroke-dasharray: 3, 3; fill: none;"></line><text x="721" y="2930" text-anchor="middle" dominant-baseline="middle" alignment-baseline="middle" class="messageText" dy="1em" style="font-family: &quot;trebuchet ms&quot;, verdana, arial, sans-serif; font-size: 16px; font-weight: 400;">设置输出变量 page_url</text><line x1="446" y1="2971" x2="995" y2="2971" class="messageLine1" stroke-width="2" stroke="none" marker-end="url(#arrowhead)" style="stroke-dasharray: 3, 3; fill: none;"></line><g><rect x="371" y="2981" fill="#EDF2AE" stroke="#666" width="150" height="36" rx="0" ry="0" class="note"></rect><text x="446" y="2986" text-anchor="middle" dominant-baseline="middle" alignment-baseline="middle" class="noteText" dy="1em" style="font-family: &quot;trebuchet ms&quot;, verdana, arial, sans-serif; font-size: 14px; font-weight: 400;"><tspan x="446">Deploy Job 完成</tspan></text></g><g><rect x="50" y="3027" fill="#EDF2AE" stroke="#666" width="1382" height="36" rx="0" ry="0" class="note"></rect><text x="741" y="3032" text-anchor="middle" dominant-baseline="middle" alignment-baseline="middle" class="noteText" dy="1em" style="font-family: &quot;trebuchet ms&quot;, verdana, arial, sans-serif; font-size: 14px; font-weight: 400;"><tspan x="741">工作流完成</tspan></text></g><text x="741" y="3078" text-anchor="middle" dominant-baseline="middle" alignment-baseline="middle" class="messageText" dy="1em" style="font-family: &quot;trebuchet ms&quot;, verdana, arial, sans-serif; font-size: 16px; font-weight: 400;">网站可访问</text><text x="741" y="3097" text-anchor="middle" dominant-baseline="middle" alignment-baseline="middle" class="messageText" dy="1em" style="font-family: &quot;trebuchet ms&quot;, verdana, arial, sans-serif; font-size: 16px; font-weight: 400;">(通过 GitHub Pages URL)</text><line x1="1407" y1="3142" x2="75" y2="3142" class="messageLine0" stroke-width="2" stroke="none" marker-end="url(#arrowhead)" style="fill: none;"></line><g><rect x="0" y="3162" fill="#eaeaea" stroke="#666" width="150" height="65" rx="3" ry="3" class="actor"></rect><text x="75" y="3194.5" dominant-baseline="central" alignment-baseline="central" class="actor" style="text-anchor: middle; font-size: 14px; font-weight: 400; font-family: &quot;Open Sans&quot;, sans-serif;"><tspan x="75" dy="0">用户</tspan></text></g><g><rect x="371" y="3162" fill="#eaeaea" stroke="#666" width="150" height="65" rx="3" ry="3" class="actor"></rect><text x="446" y="3194.5" dominant-baseline="central" alignment-baseline="central" class="actor" style="text-anchor: middle; font-size: 14px; font-weight: 400; font-family: &quot;Open Sans&quot;, sans-serif;"><tspan x="446" dy="0">GitHub</tspan></text></g><g><rect x="696" y="3162" fill="#eaeaea" stroke="#666" width="162" height="65" rx="3" ry="3" class="actor"></rect><text x="777" y="3194.5" dominant-baseline="central" alignment-baseline="central" class="actor" style="text-anchor: middle; font-size: 14px; font-weight: 400; font-family: &quot;Open Sans&quot;, sans-serif;"><tspan x="777" dy="0">Ubuntu Runner (build)</tspan></text></g><g><rect x="908" y="3162" fill="#eaeaea" stroke="#666" width="174" height="65" rx="3" ry="3" class="actor"></rect><text x="995" y="3194.5" dominant-baseline="central" alignment-baseline="central" class="actor" style="text-anchor: middle; font-size: 14px; font-weight: 400; font-family: &quot;Open Sans&quot;, sans-serif;"><tspan x="995" dy="0">Ubuntu Runner (deploy)</tspan></text></g><g><rect x="1132" y="3162" fill="#eaeaea" stroke="#666" width="150" height="65" rx="3" ry="3" class="actor"></rect><text x="1207" y="3194.5" dominant-baseline="central" alignment-baseline="central" class="actor" style="text-anchor: middle; font-size: 14px; font-weight: 400; font-family: &quot;Open Sans&quot;, sans-serif;"><tspan x="1207" dy="0">iFlow CLI Action</tspan></text></g><g><rect x="1332" y="3162" fill="#eaeaea" stroke="#666" width="150" height="65" rx="3" ry="3" class="actor"></rect><text x="1407" y="3194.5" dominant-baseline="central" alignment-baseline="central" class="actor" style="text-anchor: middle; font-size: 14px; font-weight: 400; font-family: &quot;Open Sans&quot;, sans-serif;"><tspan x="1407" dy="0">GitHub Pages</tspan></text></g></svg>